# xmcd
#
# Track frame offsets:
# 150
# 20253
# 46009
# 78034
# 115110
# 142680
# 166392
# 194312
# 213262
# 249853
#
# Disc length: 3744 seconds
#
#
# Revision: 0
# Processed by: cddbd v1.5.1PL2 Copyright (c) Steve Scherf et al.
# Submitted via: FreeRIP 2.944 
#
DISCID=6b0e9e0a
DTITLE=Jake Mackey - Certified-Live At The Little Fox Theater
DYEAR=1900
DGENRE=Blues
TTITLE0=Party Girl
TTITLE1=Let The Good Times Roll
TTITLE2=Missin My Darlin
TTITLE3=Lets Get It On
TTITLE4=Snatch It Back
TTITLE5=Bad Fish
TTITLE6=Down In New Orleans
TTITLE7=I Let A Lady
TTITLE8=River Boat
TTITLE9=Checkin Up On My Baby
EXTD=
EXTT0=
EXTT1=
EXTT2=
EXTT3=
EXTT4=
EXTT5=
EXTT6=
EXTT7=
EXTT8=
EXTT9=
PLAYORDER=
